<svg xmlns="http://www.w3.org/2000/svg" viewBox="0 0 512 512" width="512" height="512"><path d="M320.025 140.323c-22.202-3.042-46.303-1.972-69.694 3.096-5.757 1.248-9.413 6.927-8.165 12.685 1.084 4.996 5.502 8.409 10.415 8.409.748 0 1.508-.079 2.27-.244 20.981-4.548 42.514-5.519 62.279-2.812 5.84.802 11.216-3.284 12.016-9.12.799-5.835-3.284-11.214-9.121-12.014zm77.744 55.251c-5.166 2.832-7.056 9.316-4.223 14.481a95.784 95.784 0 0 1 2.38 4.629 10.666 10.666 0 1 0 19.23-9.235 118.205 118.205 0 0 0-2.908-5.652c-2.832-5.169-9.319-7.055-14.479-4.223zm15.803 35.358c-5.837.806-9.913 6.191-9.107 12.025 3.544 25.653-3.278 51.105-19.211 71.67-3.607 4.656-2.757 11.357 1.9 14.964a10.618 10.618 0 0 0 6.525 2.235c3.185 0 6.337-1.421 8.439-4.134 19.477-25.139 27.815-56.269 23.48-87.654-.808-5.836-6.194-9.903-12.026-9.106z" data-original="#000000" class="active-path" data-old_color="#000000" fill="#7DAC3F"/><path d="M480.16 224c-4.595 0-8.959.991-12.909 2.758-5.767-33.991-21.845-63.141-47.346-85.386-25.084-21.882-57.982-36.346-95.882-42.285a42.442 42.442 0 0 0 2.287-13.749c0-23.526-19.14-42.665-42.666-42.665-23.526 0-42.666 19.139-42.666 42.665 0 4.935.852 9.672 2.401 14.086-17.904 2.874-35.139 7.55-51.466 13.981l-54.042-46.797a10.674 10.674 0 0 0-10.922-1.849 10.669 10.669 0 0 0-6.673 8.845l-7.147 71.022c-30.875 17.48-50.471 42.812-59.818 77.272-5.337 19.68-8.73 20.822-19.673 21.746-16.804 1.414-24.941 8.63-28.809 14.434-5.603 8.409-6.335 19.227-2.177 32.157l12.393 38.527c5.825 18.102 16.617 21.901 24.645 21.901h11.856c27.571 35.893 53.155 44.429 86.464 52.733-1.072 13.705-2.942 29.95-4.759 44.596h-27.243c-5.891 0-10.666 4.776-10.666 10.666s4.775 10.666 10.666 10.666h113.648c5.891 0 10.667-4.776 10.667-10.666s-4.775-10.666-10.667-10.666h-4.073l6.603-22.472c25.591 3.967 51.962 2.132 84.739-5.882.132 1.148.268 2.308.405 3.484 1.276 10.912 2.723 23.279 2.437 35.284a10.668 10.668 0 0 0 10.663 10.92h98.816c5.89 0 10.667-4.776 10.667-10.667 0-5.89-4.776-10.666-10.667-10.666h-23.348c9.571-38.716 27.485-77.785 40.266-94.285 21.909-28.289 33.488-62.076 33.488-97.711 0-5.881 4.712-10.665 10.505-10.665 5.794 0 10.508 4.784 10.508 10.665 0 2.823-1.132 5.582-3.104 7.571-4.15 4.181-4.124 10.934.058 15.085a10.629 10.629 0 0 0 7.513 3.095c2.742 0 5.486-1.052 7.571-3.153 5.995-6.039 9.296-14.065 9.296-22.598C512 238.355 497.717 224 480.16 224zM283.645 64.007c11.763 0 21.333 9.57 21.333 21.332 0 11.763-9.57 21.333-21.333 21.333s-21.333-9.57-21.333-21.333c0-11.762 9.57-21.332 21.333-21.332zm135.656 276.639c-17.026 21.977-36.177 67.697-45.327 107.348h-42.989c-.394-9.626-1.478-18.899-2.467-27.349-.639-5.459-1.242-10.616-1.586-15.264a10.668 10.668 0 0 0-13.48-9.491c-39.445 10.909-68.323 12.992-96.567 6.971a10.665 10.665 0 0 0-12.458 7.425l-11.08 37.707h-38.598c2.166-17.64 4.343-37.25 5.157-52.24a10.668 10.668 0 0 0-8.124-10.942c-37.203-9.071-59.658-14.547-86.268-51.092a10.669 10.669 0 0 0-8.623-4.387H39.692c-1.515 0-3.283-3.827-4.337-7.103l-12.393-38.525c-2.01-6.248-2.144-11.146-.378-13.796 1.787-2.682 6.349-4.46 12.848-5.006 24.368-2.056 32.32-14.737 38.471-37.419 10.929-40.292 36.156-57.362 54.181-66.697a10.673 10.673 0 0 0 5.709-8.404l5.654-56.191 43.465 37.638a10.66 10.66 0 0 0 11.173 1.745c19.426-8.302 41.255-13.999 63.402-16.565 7.23 5.63 16.306 8.997 26.158 8.997 9.99 0 19.184-3.461 26.462-9.235 67.663 7.403 138.215 47.041 138.215 137.228.001 30.862-10.034 60.132-29.021 84.647z" data-original="#000000" class="active-path" data-old_color="#000000" fill="#7DAC3F"/><path d="M127.457 213.259c-5.877 0-10.667 4.794-10.667 10.669 0 5.874 4.79 10.665 10.667 10.665 5.875 0 10.666-4.791 10.666-10.665.001-5.876-4.791-10.669-10.666-10.669zm157.9 234.735h-9.954c-5.89 0-10.666 4.776-10.666 10.666s4.776 10.667 10.666 10.667h9.954c5.89 0 10.666-4.776 10.666-10.667.001-5.89-4.775-10.666-10.666-10.666z" data-original="#000000" class="active-path" data-old_color="#000000" fill="#7DAC3F"/></svg>