<svg xmlns="http://www.w3.org/2000/svg" width="512" height="512" viewBox="0 0 599.535 599.535"><path d="M540.896 89.852H58.64C26.581 89.852.5 115.934.5 147.992v303.552c0 32.058 26.082 58.14 58.14 58.14h482.256c32.059 0 58.139-26.082 58.139-58.14V147.992c0-32.059-26.08-58.14-58.139-58.14zm15.299 361.692c0 8.449-6.85 15.3-15.299 15.3H58.64c-8.45 0-15.3-6.851-15.3-15.3V147.992c0-8.45 6.85-15.3 15.3-15.3h482.256c8.449 0 15.299 6.85 15.299 15.3v303.552z" data-original="#000000" class="active-path" data-old_color="#000000" fill="#7DAC3F"/><path d="M540.896 510.184H58.64c-32.334 0-58.64-26.306-58.64-58.64V147.992c0-32.334 26.306-58.64 58.64-58.64h482.256c32.333 0 58.639 26.306 58.639 58.64v303.552c0 32.334-26.306 58.64-58.639 58.64zM58.64 90.352C26.857 90.352 1 116.209 1 147.992v303.552c0 31.782 25.857 57.64 57.64 57.64h482.256c31.782 0 57.639-25.857 57.639-57.64V147.992c0-31.783-25.856-57.64-57.639-57.64H58.64zm482.256 376.992H58.64c-8.712 0-15.8-7.088-15.8-15.8V147.992c0-8.712 7.088-15.8 15.8-15.8h482.256c8.712 0 15.799 7.088 15.799 15.8v303.552c0 8.712-7.087 15.8-15.799 15.8zM58.64 133.191c-8.161 0-14.8 6.639-14.8 14.8v303.552c0 8.16 6.639 14.8 14.8 14.8h482.256c8.16 0 14.799-6.64 14.799-14.8V147.992c0-8.161-6.639-14.8-14.799-14.8H58.64z" data-original="#000000" class="active-path" data-old_color="#000000" fill="#7DAC3F"/><path d="M237.43 307.441a106.172 106.172 0 0 0-6.863-5.006 80.295 80.295 0 0 0 15.591-23.892c4.217-9.971 6.355-20.538 6.355-31.407s-2.138-21.436-6.355-31.407a80.33 80.33 0 0 0-17.267-25.624 80.33 80.33 0 0 0-25.624-17.267c-9.971-4.218-20.538-6.356-31.407-6.356s-21.437 2.139-31.407 6.356a80.326 80.326 0 0 0-25.623 17.267 80.32 80.32 0 0 0-17.267 25.624c-4.217 9.971-6.355 20.538-6.355 31.407 0 10.87 2.138 21.436 6.355 31.407a80.314 80.314 0 0 0 15.591 23.892 105.897 105.897 0 0 0-6.863 5.006c-18.235 14.457-31.35 34.815-36.927 57.324-4.097 16.535-.422 33.717 10.081 47.139a55.498 55.498 0 0 0 18.702 15.312 55.362 55.362 0 0 0 24.695 5.837h98.038a55.362 55.362 0 0 0 24.695-5.837 55.498 55.498 0 0 0 18.702-15.312c10.503-13.423 14.178-30.604 10.082-47.138-5.58-22.509-18.694-42.868-36.929-57.325zm-65.57-98.118c20.884 0 37.814 16.93 37.814 37.813 0 10.598-4.55 20.866-12.395 27.99-23.792 21.607-63.232 3.864-63.232-27.99-.001-20.884 16.929-37.813 37.813-37.813zm49.019 180.89h-98.038c-7.935 0-13.804-7.441-11.896-15.144 3.532-14.256 12.173-27.006 24.049-35.638 31.992-23.253 78.962-10.082 94.51 25.938a62.238 62.238 0 0 1 3.27 9.698c1.909 7.704-3.961 15.146-11.895 15.146z" data-original="#000000" class="active-path" data-old_color="#000000" fill="#7DAC3F"/><path d="M220.879 433.553h-98.038a55.857 55.857 0 0 1-24.919-5.89 55.992 55.992 0 0 1-18.871-15.451c-10.599-13.544-14.307-30.882-10.172-47.566 5.604-22.616 18.78-43.07 37.102-57.596a106.979 106.979 0 0 1 6.408-4.701 80.849 80.849 0 0 1-15.286-23.61c-4.244-10.033-6.395-20.666-6.395-31.602 0-10.937 2.151-21.569 6.395-31.602a80.826 80.826 0 0 1 17.374-25.782 80.832 80.832 0 0 1 25.782-17.374c10.033-4.244 20.665-6.396 31.602-6.396s21.569 2.152 31.602 6.396a80.838 80.838 0 0 1 25.782 17.374 80.826 80.826 0 0 1 17.374 25.782c4.244 10.032 6.395 20.665 6.395 31.602 0 10.937-2.151 21.569-6.395 31.602a80.815 80.815 0 0 1-15.286 23.61 107.272 107.272 0 0 1 6.408 4.701c18.321 14.525 31.498 34.979 37.103 57.597 4.133 16.684.425 34.021-10.173 47.565a55.992 55.992 0 0 1-18.871 15.451 55.872 55.872 0 0 1-24.921 5.89zM171.86 166.982c-10.802 0-21.304 2.125-31.212 6.317a79.842 79.842 0 0 0-25.464 17.16 79.819 79.819 0 0 0-17.16 25.465c-4.191 9.908-6.316 20.41-6.316 31.212s2.125 21.304 6.316 31.212a79.871 79.871 0 0 0 15.495 23.744l.405.43-.491.328a106.573 106.573 0 0 0-6.831 4.982c-18.149 14.389-31.201 34.65-36.752 57.053-4.06 16.385-.419 33.41 9.989 46.71a54.98 54.98 0 0 0 18.532 15.173 54.85 54.85 0 0 0 24.471 5.784h98.038c8.465 0 16.927-2 24.471-5.784a54.99 54.99 0 0 0 18.532-15.173c10.408-13.301 14.049-30.326 9.99-46.709-5.552-22.403-18.604-42.665-36.753-57.054a106.438 106.438 0 0 0-6.831-4.982l-.491-.328.405-.43a79.871 79.871 0 0 0 15.495-23.744c4.191-9.909 6.316-20.41 6.316-31.212s-2.125-21.304-6.316-31.212a79.835 79.835 0 0 0-17.16-25.465 79.835 79.835 0 0 0-25.465-17.16c-9.909-4.191-20.411-6.317-31.213-6.317zm49.019 223.731h-98.038a12.686 12.686 0 0 1-10.052-4.9 12.606 12.606 0 0 1-2.329-10.863c3.566-14.395 12.175-27.152 24.24-35.922 10.544-7.664 23.128-11.716 36.39-11.716 25.837 0 48.946 14.861 58.873 37.86a62.888 62.888 0 0 1 3.296 9.776 12.609 12.609 0 0 1-2.329 10.865 12.684 12.684 0 0 1-10.051 4.9zm-49.788-62.401c-13.049 0-25.43 3.985-35.802 11.524-11.875 8.632-20.348 21.188-23.857 35.354a11.611 11.611 0 0 0 2.146 10.007 11.694 11.694 0 0 0 9.264 4.517h98.038c3.642 0 7.018-1.646 9.264-4.516a11.616 11.616 0 0 0 2.146-10.009 61.798 61.798 0 0 0-3.244-9.62c-9.77-22.633-32.518-37.257-57.955-37.257zm1.679-43.181c-9.848 0-19.711-3.852-27.061-10.567-7.843-7.167-12.163-16.907-12.163-27.428 0-10.234 3.985-19.855 11.221-27.092 7.236-7.236 16.858-11.222 27.092-11.222 21.126 0 38.314 17.188 38.314 38.313a38.387 38.387 0 0 1-12.559 28.36c-6.94 6.305-15.531 9.636-24.844 9.636zm-.91-75.308c-9.967 0-19.337 3.881-26.385 10.929-7.047 7.048-10.928 16.418-10.928 26.385 0 17.792 14.614 36.995 38.223 36.995 9.061 0 17.419-3.242 24.173-9.375a37.384 37.384 0 0 0 12.231-27.62c0-20.575-16.739-37.314-37.314-37.314zm324.988 178.685H340.707c-11.83 0-21.42 9.59-21.42 21.42s9.59 21.42 21.42 21.42h156.141c11.83 0 21.42-9.59 21.42-21.42s-9.59-21.42-21.42-21.42z" data-original="#000000" class="active-path" data-old_color="#000000" fill="#7DAC3F"/><path d="M496.848 431.848H340.707c-12.087 0-21.92-9.833-21.92-21.92s9.833-21.92 21.92-21.92h156.141c12.087 0 21.92 9.833 21.92 21.92s-9.833 21.92-21.92 21.92zm-156.141-42.84c-11.535 0-20.92 9.385-20.92 20.92s9.385 20.92 20.92 20.92h156.141c11.535 0 20.92-9.385 20.92-20.92s-9.385-20.92-20.92-20.92H340.707zM496.848 277.43H340.707c-11.83 0-21.42 9.59-21.42 21.42s9.59 21.42 21.42 21.42h156.141c11.83 0 21.42-9.59 21.42-21.42s-9.59-21.42-21.42-21.42z" data-original="#000000" class="active-path" data-old_color="#000000" fill="#7DAC3F"/><path d="M496.848 320.77H340.707c-12.087 0-21.92-9.833-21.92-21.92s9.833-21.92 21.92-21.92h156.141c12.087 0 21.92 9.833 21.92 21.92s-9.833 21.92-21.92 21.92zm-156.141-42.84c-11.535 0-20.92 9.385-20.92 20.92s9.385 20.92 20.92 20.92h156.141c11.535 0 20.92-9.385 20.92-20.92s-9.385-20.92-20.92-20.92H340.707zm156.141-111.578H340.707c-11.83 0-21.42 9.59-21.42 21.42s9.59 21.42 21.42 21.42h156.141c11.83 0 21.42-9.59 21.42-21.42s-9.59-21.42-21.42-21.42z" data-original="#000000" class="active-path" data-old_color="#000000" fill="#7DAC3F"/><path d="M496.848 209.691H340.707c-12.087 0-21.92-9.833-21.92-21.92s9.833-21.92 21.92-21.92h156.141c12.087 0 21.92 9.833 21.92 21.92s-9.833 21.92-21.92 21.92zm-156.141-42.839c-11.535 0-20.92 9.385-20.92 20.92s9.385 20.92 20.92 20.92h156.141c11.535 0 20.92-9.385 20.92-20.92s-9.385-20.92-20.92-20.92H340.707z" data-original="#000000" class="active-path" data-old_color="#000000" fill="#7DAC3F"/></svg>